REM DIRINDEX 1\8,1\2\11,1\3\12,1\3\14,1\5\15,1\5\16,1\6\17,1\6\18,1\4\19,1\4\20,1\4\21,1\4\22,1\7\23,1\7\24,1\7\25,1\2\9\26,1\2\9\27,1\2\10\28,1\2\10\29,1\2\10\30,1\2\10\31,1\2\10\32,1\3\13\33,1\3\13\34,1\3\13\35
REM DIRNAME cjc123,folder01,folder02,folder03,folder04,folder05,folder06,folder07,folder08,folder09,folder10,folder11,folder12,folder13,folder14,folder15,folder16,folder17,folder18,folder19,folder20,folder21,folder22,folder23,folder24,folder25,folder26,folder27,folder28,folder29,folder30,folder31,folder32,folder33,folder34
TITLE ""
FILE "97 097_UNIT4_SET2.mp3" MP3
  TRACK 01 AUDIO
    TITLE "14:cjc123_8183"
    INDEX 01 00:00:00
  TRACK 02 AUDIO
    TITLE "0:"
    INDEX 01 00:02:53
  TRACK 03 AUDIO
    TITLE "33:cjc123_8184"
    INDEX 01 00:03:33
  TRACK 04 AUDIO
    TITLE "0:"
    INDEX 01 00:04:33
  TRACK 05 AUDIO
    TITLE "34:cjc123_8185"
    INDEX 01 00:04:60
  TRACK 06 AUDIO
    TITLE "0:"
    INDEX 01 00:05:63
  TRACK 07 AUDIO
    TITLE "35:cjc123_8186"
    INDEX 01 00:06:33
  TRACK 08 AUDIO
    TITLE "0:"
    INDEX 01 00:11:64
  TRACK 09 AUDIO
    TITLE "33:cjc123_8187"
    INDEX 01 00:12:42
  TRACK 10 AUDIO
    TITLE "0:"
    INDEX 01 00:13:53
  TRACK 11 AUDIO
    TITLE "34:cjc123_8188"
    INDEX 01 00:14:00
  TRACK 12 AUDIO
    TITLE "0:"
    INDEX 01 00:15:15
  TRACK 13 AUDIO
    TITLE "35:cjc123_8189"
    INDEX 01 00:15:64
  TRACK 14 AUDIO
    TITLE "0:"
    INDEX 01 00:21:51
  TRACK 15 AUDIO
    TITLE "33:cjc123_8190"
    INDEX 01 00:22:25
  TRACK 16 AUDIO
    TITLE "0:"
    INDEX 01 00:23:28
  TRACK 17 AUDIO
    TITLE "34:cjc123_8191"
    INDEX 01 00:23:55
  TRACK 18 AUDIO
    TITLE "0:"
    INDEX 01 00:24:59
  TRACK 19 AUDIO
    TITLE "35:cjc123_8192"
    INDEX 01 00:25:48
  TRACK 20 AUDIO
    TITLE "0:"
    INDEX 01 00:29:50
  TRACK 21 AUDIO
    TITLE "33:cjc123_8193"
    INDEX 01 00:30:34
  TRACK 22 AUDIO
    TITLE "0:"
    INDEX 01 00:31:61
  TRACK 23 AUDIO
    TITLE "34:cjc123_8194"
    INDEX 01 00:32:09
  TRACK 24 AUDIO
    TITLE "0:"
    INDEX 01 00:33:26
  TRACK 25 AUDIO
    TITLE "35:cjc123_8195"
    INDEX 01 00:34:04
  TRACK 26 AUDIO
    TITLE "0:"
    INDEX 01 00:38:24
  TRACK 27 AUDIO
    TITLE "33:cjc123_8196"
    INDEX 01 00:39:02
  TRACK 28 AUDIO
    TITLE "0:"
    INDEX 01 00:39:62
  TRACK 29 AUDIO
    TITLE "34:cjc123_8197"
    INDEX 01 00:40:07
  TRACK 30 AUDIO
    TITLE "0:"
    INDEX 01 00:40:68
  TRACK 31 AUDIO
    TITLE "35:cjc123_8198"
    INDEX 01 00:41:38
  TRACK 32 AUDIO
    TITLE "0:"
    INDEX 01 00:44:63
  TRACK 33 AUDIO
    TITLE "33:cjc123_8199"
    INDEX 01 00:45:39
  TRACK 34 AUDIO
    TITLE "0:"
    INDEX 01 00:46:45
  TRACK 35 AUDIO
    TITLE "34:cjc123_8200"
    INDEX 01 00:46:68
  TRACK 36 AUDIO
    TITLE "0:"
    INDEX 01 00:47:68
  TRACK 37 AUDIO
    TITLE "35:cjc123_8201"
    INDEX 01 00:48:44
  TRACK 38 AUDIO
    TITLE "0:"
    INDEX 01 00:54:01
  TRACK 39 AUDIO
    TITLE "33:cjc123_8202"
    INDEX 01 00:54:56
  TRACK 40 AUDIO
    TITLE "0:"
    INDEX 01 00:56:18
  TRACK 41 AUDIO
    TITLE "34:cjc123_8203"
    INDEX 01 00:56:45
  TRACK 42 AUDIO
    TITLE "0:"
    INDEX 01 00:58:01
  TRACK 43 AUDIO
    TITLE "35:cjc123_8204"
    INDEX 01 00:58:54
  TRACK 44 AUDIO
    TITLE "0:"
    INDEX 01 01:05:36
  TRACK 45 AUDIO
    TITLE "33:cjc123_8205"
    INDEX 01 01:06:10
  TRACK 46 AUDIO
    TITLE "0:"
    INDEX 01 01:07:39
  TRACK 47 AUDIO
    TITLE "34:cjc123_8206"
    INDEX 01 01:07:53
  TRACK 48 AUDIO
    TITLE "0:"
    INDEX 01 01:08:72
  TRACK 49 AUDIO
    TITLE "35:cjc123_8207"
    INDEX 01 01:09:46
  TRACK 50 AUDIO
    TITLE "0:"
    INDEX 01 01:14:59
  TRACK 51 AUDIO
    TITLE "33:cjc123_8208"
    INDEX 01 01:15:44
  TRACK 52 AUDIO
    TITLE "0:"
    INDEX 01 01:16:50
  TRACK 53 AUDIO
    TITLE "34:cjc123_8209"
    INDEX 01 01:17:00
  TRACK 54 AUDIO
    TITLE "0:"
    INDEX 01 01:18:09
  TRACK 55 AUDIO
    TITLE "35:cjc123_8210"
    INDEX 01 01:18:60
  TRACK 56 AUDIO
    TITLE "0:"
    INDEX 01 01:23:15
  TRACK 57 AUDIO
    TITLE "33:cjc123_8211"
    INDEX 01 01:23:65
  TRACK 58 AUDIO
    TITLE "0:"
    INDEX 01 01:25:04
  TRACK 59 AUDIO
    TITLE "34:cjc123_8212"
    INDEX 01 01:25:29
  TRACK 60 AUDIO
    TITLE "0:"
    INDEX 01 01:26:56
  TRACK 61 AUDIO
    TITLE "35:cjc123_8213"
    INDEX 01 01:27:28
  TRACK 62 AUDIO
    TITLE "0:"
    INDEX 01 01:32:66
  TRACK 63 AUDIO
    TITLE "33:cjc123_8214"
    INDEX 01 01:33:58
  TRACK 64 AUDIO
    TITLE "0:"
    INDEX 01 01:35:06
  TRACK 65 AUDIO
    TITLE "34:cjc123_8215"
    INDEX 01 01:35:31
  TRACK 66 AUDIO
    TITLE "0:"
    INDEX 01 01:36:56
  TRACK 67 AUDIO
    TITLE "35:cjc123_8216"
    INDEX 01 01:37:34
  TRACK 68 AUDIO
    TITLE "0:"
    INDEX 01 01:43:19
  TRACK 69 AUDIO
    TITLE "33:cjc123_8217"
    INDEX 01 01:43:70
  TRACK 70 AUDIO
    TITLE "0:"
    INDEX 01 01:45:16
  TRACK 71 AUDIO
    TITLE "34:cjc123_8218"
    INDEX 01 01:45:44
  TRACK 72 AUDIO
    TITLE "0:"
    INDEX 01 01:46:61
  TRACK 73 AUDIO
    TITLE "35:cjc123_8219"
    INDEX 01 01:47:39
  TRACK 74 AUDIO
    TITLE "0:"
    INDEX 01 01:52:06
  TRACK 75 AUDIO
    TITLE "33:cjc123_8220"
    INDEX 01 01:52:57
  TRACK 76 AUDIO
    TITLE "0:"
    INDEX 01 01:53:61
  TRACK 77 AUDIO
    TITLE "34:cjc123_8221"
    INDEX 01 01:54:13
  TRACK 78 AUDIO
    TITLE "0:"
    INDEX 01 01:55:07
  TRACK 79 AUDIO
    TITLE "35:cjc123_8222"
    INDEX 01 01:55:62
  TRACK 80 AUDIO
    TITLE "0:"
    INDEX 01 02:00:49
  TRACK 81 AUDIO
    TITLE "33:cjc123_8223"
    INDEX 01 02:01:23
  TRACK 82 AUDIO
    TITLE "0:"
    INDEX 01 02:02:24
  TRACK 83 AUDIO
    TITLE "34:cjc123_8224"
    INDEX 01 02:02:50
  TRACK 84 AUDIO
    TITLE "0:"
    INDEX 01 02:03:57
  TRACK 85 AUDIO
    TITLE "35:cjc123_8225"
    INDEX 01 02:04:31
  TRACK 86 AUDIO
    TITLE "0:"
    INDEX 01 02:08:05
  TRACK 87 AUDIO
    TITLE "33:cjc123_8226"
    INDEX 01 02:08:56
  TRACK 88 AUDIO
    TITLE "0:"
    INDEX 01 02:09:69
  TRACK 89 AUDIO
    TITLE "34:cjc123_8227"
    INDEX 01 02:10:18
  TRACK 90 AUDIO
    TITLE "0:"
    INDEX 01 02:11:35
  TRACK 91 AUDIO
    TITLE "35:cjc123_8228"
    INDEX 01 02:12:09
  TRACK 92 AUDIO
    TITLE "0:"
    INDEX 01 02:16:28
